<svg width="344" height="80" viewBox="0 0 344 80" fill="none" xmlns="http://www.w3.org/2000/svg">
<circle cx="26.5" cy="52.7" r="26.5" fill="url(#paint0_linear_15_986)" fill-opacity="0.88"/>
<circle cx="34" cy="43.2" r="9" fill="white"/>
<path d="M60.2469 25.0759C56.1583 31.5631 33.9776 43.3128 33.9776 43.3128C33.9776 43.3128 35.0084 18.2333 39.097 11.7461C43.1856 5.25892 51.2346 2.98396 57.0749 6.66487C62.9153 10.3458 64.3355 18.5887 60.2469 25.0759Z" fill="url(#paint1_linear_15_986)"/>
<path d="M85.76 38.384C85.248 37.4453 84.544 36.7307 83.648 36.24C82.752 35.7493 81.7067 35.504 80.512 35.504C79.1893 35.504 78.016 35.8027 76.992 36.4C75.968 36.9973 75.168 37.8507 74.592 38.96C74.016 40.0693 73.728 41.3493 73.728 42.8C73.728 44.2933 74.016 45.5947 74.592 46.704C75.1893 47.8133 76.0107 48.6667 77.056 49.264C78.1013 49.8613 79.3173 50.16 80.704 50.16C82.4107 50.16 83.808 49.712 84.896 48.816C85.984 47.8987 86.6987 46.6293 87.04 45.008H79.36V41.584H91.456V45.488C91.1573 47.0453 90.5173 48.4853 89.536 49.808C88.5547 51.1307 87.2853 52.1973 85.728 53.008C84.192 53.7973 82.464 54.192 80.544 54.192C78.3893 54.192 76.4373 53.712 74.688 52.752C72.96 51.7707 71.5947 50.416 70.592 48.688C69.6107 46.96 69.12 44.9973 69.12 42.8C69.12 40.6027 69.6107 38.64 70.592 36.912C71.5947 35.1627 72.96 33.808 74.688 32.848C76.4373 31.8667 78.3787 31.376 80.512 31.376C83.0293 31.376 85.216 31.9947 87.072 33.232C88.928 34.448 90.208 36.1653 90.912 38.384H85.76ZM111.251 44.752C111.251 45.392 111.208 45.968 111.123 46.48H98.1625C98.2692 47.76 98.7172 48.7627 99.5065 49.488C100.296 50.2133 101.267 50.576 102.419 50.576C104.083 50.576 105.267 49.8613 105.971 48.432H110.803C110.291 50.1387 109.309 51.5467 107.859 52.656C106.408 53.744 104.627 54.288 102.515 54.288C100.808 54.288 99.2718 53.9147 97.9065 53.168C96.5625 52.4 95.5065 51.3227 94.7385 49.936C93.9918 48.5493 93.6185 46.9493 93.6185 45.136C93.6185 43.3013 93.9918 41.6907 94.7385 40.304C95.4852 38.9173 96.5305 37.8507 97.8745 37.104C99.2185 36.3573 100.765 35.984 102.515 35.984C104.2 35.984 105.704 36.3467 107.027 37.072C108.371 37.7973 109.405 38.832 110.131 40.176C110.877 41.4987 111.251 43.024 111.251 44.752ZM106.611 43.472C106.589 42.32 106.173 41.4027 105.363 40.72C104.552 40.016 103.56 39.664 102.387 39.664C101.277 39.664 100.339 40.0053 99.5705 40.688C98.8238 41.3493 98.3652 42.2773 98.1945 43.472H106.611ZM122.393 54.288C120.686 54.288 119.15 53.9147 117.785 53.168C116.419 52.4 115.342 51.3227 114.553 49.936C113.785 48.5493 113.401 46.9493 113.401 45.136C113.401 43.3227 113.795 41.7227 114.585 40.336C115.395 38.9493 116.494 37.8827 117.881 37.136C119.267 36.368 120.814 35.984 122.521 35.984C124.227 35.984 125.774 36.368 127.161 37.136C128.547 37.8827 129.635 38.9493 130.425 40.336C131.235 41.7227 131.641 43.3227 131.641 45.136C131.641 46.9493 131.225 48.5493 130.392 49.936C129.582 51.3227 128.473 52.4 127.065 53.168C125.678 53.9147 124.121 54.288 122.393 54.288ZM122.393 50.384C123.203 50.384 123.961 50.192 124.665 49.808C125.39 49.4027 125.966 48.8053 126.393 48.016C126.819 47.2267 127.033 46.2667 127.033 45.136C127.033 43.4507 126.585 42.16 125.689 41.264C124.814 40.3467 123.737 39.888 122.457 39.888C121.177 39.888 120.099 40.3467 119.225 41.264C118.371 42.16 117.945 43.4507 117.945 45.136C117.945 46.8213 118.361 48.1227 119.193 49.04C120.046 49.936 121.113 50.384 122.393 50.384ZM141.871 35.984C143.193 35.984 144.356 36.2507 145.359 36.784C146.361 37.296 147.151 37.968 147.727 38.8V36.272H152.239V54.128C152.239 55.7707 151.908 57.232 151.247 58.512C150.585 59.8133 149.593 60.8373 148.271 61.584C146.948 62.352 145.348 62.736 143.471 62.736C140.953 62.736 138.884 62.1493 137.263 60.976C135.663 59.8027 134.756 58.2027 134.543 56.176H138.991C139.225 56.9867 139.727 57.6267 140.495 58.096C141.284 58.5867 142.233 58.832 143.343 58.832C144.644 58.832 145.7 58.4373 146.511 57.648C147.321 56.88 147.727 55.7067 147.727 54.128V51.376C147.151 52.208 146.351 52.9013 145.327 53.456C144.324 54.0107 143.172 54.288 141.871 54.288C140.377 54.288 139.012 53.904 137.775 53.136C136.537 52.368 135.556 51.2907 134.831 49.904C134.127 48.496 133.775 46.8853 133.775 45.072C133.775 43.28 134.127 41.6907 134.831 40.304C135.556 38.9173 136.527 37.8507 137.743 37.104C138.98 36.3573 140.356 35.984 141.871 35.984ZM147.727 45.136C147.727 44.048 147.513 43.12 147.087 42.352C146.66 41.5627 146.084 40.9653 145.359 40.56C144.633 40.1333 143.855 39.92 143.023 39.92C142.191 39.92 141.423 40.1227 140.719 40.528C140.015 40.9333 139.439 41.5307 138.991 42.32C138.564 43.088 138.351 44.0053 138.351 45.072C138.351 46.1387 138.564 47.0773 138.991 47.888C139.439 48.6773 140.015 49.2853 140.719 49.712C141.444 50.1387 142.212 50.352 143.023 50.352C143.855 50.352 144.633 50.1493 145.359 49.744C146.084 49.3173 146.66 48.72 147.087 47.952C147.513 47.1627 147.727 46.224 147.727 45.136ZM173.35 36.272V54H168.838V51.76C168.262 52.528 167.505 53.136 166.566 53.584C165.649 54.0107 164.646 54.224 163.558 54.224C162.172 54.224 160.945 53.936 159.878 53.36C158.812 52.7627 157.969 51.8987 157.35 50.768C156.753 49.616 156.454 48.2507 156.454 46.672V36.272H160.934V46.032C160.934 47.44 161.286 48.528 161.99 49.296C162.694 50.0427 163.654 50.416 164.87 50.416C166.108 50.416 167.078 50.0427 167.782 49.296C168.486 48.528 168.838 47.44 168.838 46.032V36.272H173.35ZM194.251 44.752C194.251 45.392 194.208 45.968 194.123 46.48H181.163C181.269 47.76 181.717 48.7627 182.507 49.488C183.296 50.2133 184.267 50.576 185.419 50.576C187.083 50.576 188.267 49.8613 188.971 48.432H193.803C193.291 50.1387 192.309 51.5467 190.859 52.656C189.408 53.744 187.627 54.288 185.515 54.288C183.808 54.288 182.272 53.9147 180.907 53.168C179.563 52.4 178.507 51.3227 177.739 49.936C176.992 48.5493 176.618 46.9493 176.618 45.136C176.618 43.3013 176.992 41.6907 177.739 40.304C178.485 38.9173 179.531 37.8507 180.875 37.104C182.219 36.3573 183.765 35.984 185.515 35.984C187.2 35.984 188.704 36.3467 190.027 37.072C191.371 37.7973 192.405 38.832 193.131 40.176C193.877 41.4987 194.251 43.024 194.251 44.752ZM189.611 43.472C189.589 42.32 189.173 41.4027 188.363 40.72C187.552 40.016 186.56 39.664 185.387 39.664C184.277 39.664 183.339 40.0053 182.571 40.688C181.824 41.3493 181.365 42.2773 181.195 43.472H189.611ZM204.305 54.288C202.854 54.288 201.553 54.032 200.401 53.52C199.249 52.9867 198.331 52.272 197.649 51.376C196.987 50.48 196.625 49.488 196.561 48.4H201.073C201.158 49.0827 201.489 49.648 202.065 50.096C202.662 50.544 203.398 50.768 204.273 50.768C205.126 50.768 205.787 50.5973 206.257 50.256C206.747 49.9147 206.993 49.4773 206.993 48.944C206.993 48.368 206.694 47.9413 206.097 47.664C205.521 47.3653 204.593 47.0453 203.312 46.704C201.99 46.384 200.902 46.0533 200.049 45.712C199.217 45.3707 198.491 44.848 197.873 44.144C197.275 43.44 196.977 42.4907 196.977 41.296C196.977 40.3147 197.254 39.4187 197.809 38.608C198.385 37.7973 199.195 37.1573 200.241 36.688C201.307 36.2187 202.555 35.984 203.985 35.984C206.097 35.984 207.782 36.5173 209.041 37.584C210.299 38.6293 210.993 40.048 211.121 41.84H206.833C206.769 41.136 206.47 40.5813 205.937 40.176C205.425 39.7493 204.731 39.536 203.857 39.536C203.046 39.536 202.417 39.6853 201.969 39.984C201.542 40.2827 201.329 40.6987 201.329 41.232C201.329 41.8293 201.627 42.288 202.225 42.608C202.822 42.9067 203.75 43.216 205.009 43.536C206.289 43.856 207.345 44.1867 208.177 44.528C209.009 44.8693 209.723 45.4027 210.321 46.128C210.939 46.832 211.259 47.7707 211.281 48.944C211.281 49.968 210.993 50.8853 210.417 51.696C209.862 52.5067 209.051 53.1467 207.985 53.616C206.939 54.064 205.713 54.288 204.305 54.288ZM221.742 54.288C220.291 54.288 218.99 54.032 217.838 53.52C216.686 52.9867 215.769 52.272 215.086 51.376C214.425 50.48 214.062 49.488 213.998 48.4H218.51C218.595 49.0827 218.926 49.648 219.502 50.096C220.099 50.544 220.835 50.768 221.71 50.768C222.563 50.768 223.225 50.5973 223.694 50.256C224.185 49.9147 224.43 49.4773 224.43 48.944C224.43 48.368 224.131 47.9413 223.534 47.664C222.958 47.3653 222.03 47.0453 220.75 46.704C219.427 46.384 218.339 46.0533 217.486 45.712C216.654 45.3707 215.929 44.848 215.31 44.144C214.713 43.44 214.414 42.4907 214.414 41.296C214.414 40.3147 214.691 39.4187 215.246 38.608C215.822 37.7973 216.633 37.1573 217.678 36.688C218.745 36.2187 219.993 35.984 221.422 35.984C223.534 35.984 225.219 36.5173 226.478 37.584C227.737 38.6293 228.43 40.048 228.558 41.84H224.27C224.206 41.136 223.907 40.5813 223.374 40.176C222.862 39.7493 222.169 39.536 221.294 39.536C220.483 39.536 219.854 39.6853 219.406 39.984C218.979 40.2827 218.766 40.6987 218.766 41.232C218.766 41.8293 219.065 42.288 219.662 42.608C220.259 42.9067 221.187 43.216 222.446 43.536C223.726 43.856 224.782 44.1867 225.614 44.528C226.446 44.8693 227.161 45.4027 227.758 46.128C228.377 46.832 228.697 47.7707 228.718 48.944C228.718 49.968 228.43 50.8853 227.854 51.696C227.299 52.5067 226.489 53.1467 225.422 53.616C224.377 54.064 223.15 54.288 221.742 54.288ZM256.748 31.664V54H252.268V39.472L246.284 54H242.892L236.876 39.472V54H232.396V31.664H237.484L244.588 48.272L251.692 31.664H256.748ZM260.025 45.072C260.025 43.28 260.377 41.6907 261.081 40.304C261.806 38.9173 262.777 37.8507 263.993 37.104C265.23 36.3573 266.606 35.984 268.121 35.984C269.443 35.984 270.595 36.2507 271.577 36.784C272.579 37.3173 273.379 37.9893 273.977 38.8V36.272H278.489V54H273.977V51.408C273.401 52.24 272.601 52.9333 271.577 53.488C270.574 54.0213 269.411 54.288 268.089 54.288C266.595 54.288 265.23 53.904 263.993 53.136C262.777 52.368 261.806 51.2907 261.081 49.904C260.377 48.496 260.025 46.8853 260.025 45.072ZM273.977 45.136C273.977 44.048 273.763 43.12 273.337 42.352C272.91 41.5627 272.334 40.9653 271.609 40.56C270.883 40.1333 270.105 39.92 269.273 39.92C268.441 39.92 267.673 40.1227 266.969 40.528C266.265 40.9333 265.689 41.5307 265.241 42.32C264.814 43.088 264.601 44.0053 264.601 45.072C264.601 46.1387 264.814 47.0773 265.241 47.888C265.689 48.6773 266.265 49.2853 266.969 49.712C267.694 50.1387 268.462 50.352 269.273 50.352C270.105 50.352 270.883 50.1493 271.609 49.744C272.334 49.3173 272.91 48.72 273.337 47.952C273.763 47.1627 273.977 46.224 273.977 45.136ZM289.648 54.288C288.198 54.288 286.896 54.032 285.744 53.52C284.592 52.9867 283.675 52.272 282.992 51.376C282.331 50.48 281.968 49.488 281.904 48.4H286.416C286.502 49.0827 286.832 49.648 287.408 50.096C288.006 50.544 288.742 50.768 289.616 50.768C290.47 50.768 291.131 50.5973 291.6 50.256C292.091 49.9147 292.336 49.4773 292.336 48.944C292.336 48.368 292.038 47.9413 291.44 47.664C290.864 47.3653 289.936 47.0453 288.656 46.704C287.334 46.384 286.246 46.0533 285.392 45.712C284.56 45.3707 283.835 44.848 283.216 44.144C282.619 43.44 282.32 42.4907 282.32 41.296C282.32 40.3147 282.598 39.4187 283.152 38.608C283.728 37.7973 284.539 37.1573 285.584 36.688C286.651 36.2187 287.899 35.984 289.328 35.984C291.44 35.984 293.126 36.5173 294.384 37.584C295.643 38.6293 296.336 40.048 296.464 41.84H292.176C292.112 41.136 291.814 40.5813 291.28 40.176C290.768 39.7493 290.075 39.536 289.2 39.536C288.39 39.536 287.76 39.6853 287.312 39.984C286.886 40.2827 286.672 40.6987 286.672 41.232C286.672 41.8293 286.971 42.288 287.568 42.608C288.166 42.9067 289.094 43.216 290.352 43.536C291.632 43.856 292.688 44.1867 293.52 44.528C294.352 44.8693 295.067 45.4027 295.664 46.128C296.283 46.832 296.603 47.7707 296.624 48.944C296.624 49.968 296.336 50.8853 295.76 51.696C295.206 52.5067 294.395 53.1467 293.328 53.616C292.283 54.064 291.056 54.288 289.648 54.288ZM305.518 39.952V48.528C305.518 49.1253 305.656 49.5627 305.934 49.84C306.232 50.096 306.723 50.224 307.406 50.224H309.486V54H306.67C302.894 54 301.006 52.1653 301.006 48.496V39.952H298.894V36.272H301.006V31.888H305.518V36.272H309.486V39.952H305.518ZM329.188 44.752C329.188 45.392 329.145 45.968 329.06 46.48H316.1C316.207 47.76 316.655 48.7627 317.444 49.488C318.233 50.2133 319.204 50.576 320.356 50.576C322.02 50.576 323.204 49.8613 323.908 48.432H328.74C328.228 50.1387 327.247 51.5467 325.796 52.656C324.345 53.744 322.564 54.288 320.452 54.288C318.745 54.288 317.209 53.9147 315.844 53.168C314.5 52.4 313.444 51.3227 312.676 49.936C311.929 48.5493 311.556 46.9493 311.556 45.136C311.556 43.3013 311.929 41.6907 312.676 40.304C313.423 38.9173 314.468 37.8507 315.812 37.104C317.156 36.3573 318.703 35.984 320.452 35.984C322.137 35.984 323.641 36.3467 324.964 37.072C326.308 37.7973 327.343 38.832 328.068 40.176C328.815 41.4987 329.188 43.024 329.188 44.752ZM324.548 43.472C324.527 42.32 324.111 41.4027 323.3 40.72C322.489 40.016 321.497 39.664 320.324 39.664C319.215 39.664 318.276 40.0053 317.508 40.688C316.761 41.3493 316.303 42.2773 316.132 43.472H324.548ZM336.938 39.024C337.514 38.0853 338.261 37.3493 339.178 36.816C340.117 36.2827 341.183 36.016 342.378 36.016V40.72H341.194C339.786 40.72 338.719 41.0507 337.994 41.712C337.29 42.3733 336.938 43.5253 336.938 45.168V54H332.458V36.272H336.938V39.024Z" fill="#1B1B1F"/>
<defs>
<linearGradient id="paint0_linear_15_986" x1="26.5" y1="26.2" x2="26.5" y2="79.2" gradientUnits="userSpaceOnUse">
<stop stop-color="#001AFF"/>
<stop offset="1" stop-color="#BD00FF"/>
</linearGradient>
<linearGradient id="paint1_linear_15_986" x1="57.0749" y1="6.66487" x2="33.9776" y2="43.3128" gradientUnits="userSpaceOnUse">
<stop stop-color="#FF3636"/>
<stop offset="1" stop-color="#FFB629"/>
</linearGradient>
</defs>
</svg>
