<?xml version="1.0" standalone="no"?>
<!DOCTYPE svg PUBLIC "-//W3C//DTD SVG 20010904//EN"
 "http://www.w3.org/TR/2001/REC-SVG-20010904/DTD/svg10.dtd">
<svg version="1.0" xmlns="http://www.w3.org/2000/svg"
 width="516.000000pt" height="516.000000pt" viewBox="0 0 516.000000 516.000000"
 preserveAspectRatio="xMidYMid meet">
<metadata>
Created by potrace 1.14, written by Peter Selinger 2001-2017
</metadata>
<g transform="translate(0.000000,516.000000) scale(0.100000,-0.100000)"
fill="#000000" stroke="none">
<path d="M470 5146 c-72 -16 -193 -75 -250 -123 -101 -83 -178 -210 -205 -338
-21 -102 -21 -4115 1 -4215 42 -196 188 -359 392 -439 l67 -26 2100 0 2100 0
66 23 c117 40 223 114 287 201 15 20 30 38 33 41 17 14 63 121 80 188 19 74
19 124 17 2146 l-3 2071 -22 65 c-70 205 -240 361 -443 404 -89 20 -4133 21
-4220 2z"/>
</g>
</svg>
